<svg xmlns="http://www.w3.org/2000/svg" viewBox="0 0 59 59"><title>creative cloud</title><g id="Layer_2" data-name="Layer 2"><g id="Layer_1-2" data-name="Layer 1"><g id="creative_cloud" data-name="creative cloud"><path d="M48.5,0h-38A10.51,10.51,0,0,0,0,10.5v38A10.51,10.51,0,0,0,10.5,59h38A10.51,10.51,0,0,0,59,48.5v-38A10.51,10.51,0,0,0,48.5,0ZM21.3,43.4h-.25a11.05,11.05,0,1,1,7.82-18.87l3.6,3.6a2.5,2.5,0,0,1-3.53,3.54l-3.61-3.61a6.05,6.05,0,0,0-8.56,8.56,5.92,5.92,0,0,0,4.42,1.78h0a2.5,2.5,0,0,1,.06,5Zm23.63-4.07a13.92,13.92,0,0,1-19.67,0L20.91,35a2.5,2.5,0,1,1,3.54-3.53l4.34,4.35a8.91,8.91,0,1,0,2.86-14.52,2.5,2.5,0,1,1-1.92-4.61,13.91,13.91,0,0,1,15.2,22.66Z"/></g></g></g></svg>