<svg xmlns="http://www.w3.org/2000/svg" viewBox="0 0 59 59"><title>face id</title><g id="Layer_2" data-name="Layer 2"><g id="Layer_1-2" data-name="Layer 1"><g id="face_id" data-name="face id"><path d="M56.05,15.73a3,3,0,0,1-2.95-3V5.9H46.22a3,3,0,1,1,0-5.9h9.83a3,3,0,0,1,3,3v9.83A3,3,0,0,1,56.05,15.73Z"/><path d="M3,15.73a3,3,0,0,1-2.95-3V3A3,3,0,0,1,3,0h9.83a3,3,0,1,1,0,5.9H5.9v6.88A3,3,0,0,1,3,15.73Z"/><path d="M56.05,59H46.22a3,3,0,1,1,0-5.9H53.1V46.22a3,3,0,0,1,5.9,0v9.83A3,3,0,0,1,56.05,59Z"/><path d="M12.78,59H3a3,3,0,0,1-2.95-3V46.22a3,3,0,0,1,5.9,0V53.1h6.88a3,3,0,1,1,0,5.9Z"/><path d="M29.5,45.83a18.06,18.06,0,0,1-12.58-5A2.95,2.95,0,1,1,21,36.56a12.3,12.3,0,0,0,17,0,2.95,2.95,0,1,1,4.1,4.24A18.06,18.06,0,0,1,29.5,45.83Z"/><path d="M44.74,25.22a2.93,2.93,0,0,1-2.29-1.09,3.14,3.14,0,0,0-4.3-.53,2.95,2.95,0,0,1-3.55-4.71A9.09,9.09,0,0,1,47,20.41a2.95,2.95,0,0,1-2.29,4.81Z"/><path d="M14.26,25.22A2.95,2.95,0,0,1,12,20.41,9.09,9.09,0,0,1,24.4,18.89a2.95,2.95,0,0,1-3.55,4.71,3.14,3.14,0,0,0-4.3.53A2.93,2.93,0,0,1,14.26,25.22Z"/></g></g></g></svg>