<svg xmlns="http://www.w3.org/2000/svg" viewBox="0 0 59 42.29"><defs><style>.cls-1{opacity:0.41;}</style></defs><title>flight takeoff</title><g id="Layer_2" data-name="Layer 2"><g id="Layer_1-2" data-name="Layer 1"><g id="flight_takeoff" data-name="flight takeoff"><path d="M21.51,28.24,53.21,8.89a4.6,4.6,0,0,0,1.63-6.15h0A4.6,4.6,0,0,0,48.59,1L37,7.37,23.14.22a2,2,0,0,0-1.88,0L16.78,2.73A2,2,0,0,0,16.5,6L26.93,14.4,15.8,21.77,10.74,18,3.65,22.32l7.47,5.48A9.33,9.33,0,0,0,21.51,28.24Z"/><path d="M56.5,42.29H2.5a2.5,2.5,0,0,1,0-5h54a2.5,2.5,0,0,1,0,5Z"/></g></g></g></svg>