<svg xmlns="http://www.w3.org/2000/svg" viewBox="0 0 58.5 38.6"><title>frying pan</title><g id="Layer_2" data-name="Layer 2"><g id="Layer_1-2" data-name="Layer 1"><g id="frying_pan" data-name="frying pan"><path d="M2.67,11.69a6.8,6.8,0,0,0,2,4.84A2.5,2.5,0,1,0,8.21,13a1.82,1.82,0,0,1-.54-1.3,1.78,1.78,0,0,1,.54-1.29,6.84,6.84,0,0,0,0-9.67A2.5,2.5,0,0,0,4.67,4.27a1.78,1.78,0,0,1,.54,1.29,1.82,1.82,0,0,1-.54,1.3A6.79,6.79,0,0,0,2.67,11.69Z"/><path d="M14.05,11.69a6.77,6.77,0,0,0,2,4.84,2.49,2.49,0,0,0,1.76.73,2.53,2.53,0,0,0,1.77-.73,2.5,2.5,0,0,0,0-3.54,1.82,1.82,0,0,1-.54-1.3,1.78,1.78,0,0,1,.54-1.29,6.84,6.84,0,0,0,0-9.67,2.5,2.5,0,0,0-3.53,3.54,1.81,1.81,0,0,1,.53,1.29,1.86,1.86,0,0,1-.53,1.3A6.76,6.76,0,0,0,14.05,11.69Z"/><path d="M25.44,11.69a6.8,6.8,0,0,0,2,4.84,2.53,2.53,0,0,0,1.77.73A2.5,2.5,0,0,0,31,13a1.86,1.86,0,0,1-.53-1.3A1.81,1.81,0,0,1,31,10.4,6.82,6.82,0,0,0,31,.73a2.5,2.5,0,1,0-3.53,3.54A1.82,1.82,0,0,1,28,5.56a1.87,1.87,0,0,1-.54,1.3A6.79,6.79,0,0,0,25.44,11.69Z"/><path d="M52.92,21.85H42.31a2,2,0,0,0-2,2v1.07H35.65V23.85a2.49,2.49,0,0,0-2.5-2.5H2.5A2.49,2.49,0,0,0,0,23.85v4A10.76,10.76,0,0,0,10.75,38.6H24.9a10.76,10.76,0,0,0,10.54-8.68h4.87V31a2,2,0,0,0,2,2H52.92a5.58,5.58,0,1,0,0-11.15Z"/></g></g></g></svg>