<svg xmlns="http://www.w3.org/2000/svg" viewBox="0 0 59 58.56"><title>github</title><g id="Layer_2" data-name="Layer 2"><g id="Layer_1-2" data-name="Layer 1"><g id="github"><path d="M29.5,0a29.49,29.49,0,0,0-5,58.56V49.42l-.54,0a9.08,9.08,0,0,1-6-1.93,7.91,7.91,0,0,1-2.07-3.37c-.3-.81-.44-1.13-.74-1.35a2.8,2.8,0,0,0-1.86-.32,2.5,2.5,0,1,1-.47-5,7.44,7.44,0,0,1,5.32,1.29,7.17,7.17,0,0,1,2.43,3.61,3.64,3.64,0,0,0,.75,1.42,5.06,5.06,0,0,0,3.29.6,7.1,7.1,0,0,1,.53-2.21,8.28,8.28,0,0,1,3-3.64C20.56,37.68,17,34,17,29a9.22,9.22,0,0,1,2.52-6c-.5-1.74-1.17-5.32.22-6.71a8,8,0,0,1,5.88,2.74A17.16,17.16,0,0,1,31,18a16.87,16.87,0,0,1,5.42.9,8,8,0,0,1,5.88-2.74c1.34,1.34.72,5,.16,6.71A9,9,0,0,1,45,29c0,5-3.53,8.73-11,9.51,2.06,1.06,3.52,4.08,3.52,6.32V57.89A29.5,29.5,0,0,0,29.5,0Z"/></g></g></g></svg>