<svg xmlns="http://www.w3.org/2000/svg" viewBox="0 0 55.47 35.14"><title>graduation</title><g id="Layer_2" data-name="Layer 2"><g id="Layer_1-2" data-name="Layer 1"><g id="graduation"><path d="M27.73,27.69a14.67,14.67,0,0,1-5.42-1l-12-4.75v4.73a8.51,8.51,0,0,0,8.5,8.5H36.69a8.51,8.51,0,0,0,8.5-8.5V21.91l-12,4.75A14.72,14.72,0,0,1,27.73,27.69Z"/><path d="M53.89,9.52,31.69.74a10.9,10.9,0,0,0-7.91,0L1.58,9.52a2.5,2.5,0,0,0,0,4.65l22.2,8.77a10.8,10.8,0,0,0,7.91,0l18.78-7.42V32.64a2.5,2.5,0,0,0,5,0V11.84A2.5,2.5,0,0,0,53.89,9.52Z"/></g></g></g></svg>