<svg xmlns="http://www.w3.org/2000/svg" viewBox="0 0 59 59"><title>language</title><g id="Layer_2" data-name="Layer 2"><g id="Layer_1-2" data-name="Layer 1"><path id="language" d="M59,29.5A29.54,29.54,0,0,0,29.6,0h-.19a29.5,29.5,0,0,0,.09,59h0A29.53,29.53,0,0,0,59,29.5ZM29.5,53A34.93,34.93,0,0,1,22,41H37A34.93,34.93,0,0,1,29.5,53ZM20.64,36a33.33,33.33,0,0,1,0-13H38.36a33.33,33.33,0,0,1,0,13ZM5,29.5A24.46,24.46,0,0,1,5.88,23h9.68a38,38,0,0,0,0,13H5.88A24.46,24.46,0,0,1,5,29.5ZM29.5,6A34.93,34.93,0,0,1,37,18H22A34.93,34.93,0,0,1,29.5,6ZM43.44,23h9.68a24.45,24.45,0,0,1,0,13H43.44a38,38,0,0,0,0-13Zm7.69-5H42.24A39.13,39.13,0,0,0,35.9,5.85,24.62,24.62,0,0,1,51.13,18ZM23.1,5.85A39.13,39.13,0,0,0,16.76,18H7.87A24.62,24.62,0,0,1,23.1,5.85ZM7.87,41h8.89A39.13,39.13,0,0,0,23.1,53.15,24.62,24.62,0,0,1,7.87,41Zm28,12.15A39.13,39.13,0,0,0,42.24,41h8.89A24.62,24.62,0,0,1,35.9,53.15Z"/></g></g></svg>