<svg xmlns="http://www.w3.org/2000/svg" viewBox="0 0 58.99 53.15"><title>laptop</title><g id="Layer_2" data-name="Layer 2"><g id="Layer_1-2" data-name="Layer 1"><path id="laptop" d="M58.56,44,54.47,33.08V6.5A6.51,6.51,0,0,0,48,0H11a6.51,6.51,0,0,0-6.5,6.5V33.08L.43,44a6.78,6.78,0,0,0,6.35,9.16H52.21A6.78,6.78,0,0,0,58.56,44Zm-4.89,3.4a1.76,1.76,0,0,1-1.46.76H42a1.46,1.46,0,0,0,0-.22,2.5,2.5,0,0,0-2.5-2.5h-20a2.5,2.5,0,0,0-2.5,2.5,1.5,1.5,0,0,0,0,.22H6.78a1.78,1.78,0,0,1-1.67-2.4L8.76,36H50.24l3.64,9.72A1.78,1.78,0,0,1,53.67,47.39Z"/></g></g></svg>