<svg xmlns="http://www.w3.org/2000/svg" viewBox="0 0 59 59"><title>office</title><g id="Layer_2" data-name="Layer 2"><g id="Layer_1-2" data-name="Layer 1"><path id="office" d="M57,24.05V12.5A2.5,2.5,0,0,0,54.5,10h-18A2.5,2.5,0,0,0,34,12.5V24H18V21h4.91a5.63,5.63,0,0,0,5.63-5.62V5.62A5.63,5.63,0,0,0,22.91,0H8.08A5.63,5.63,0,0,0,2.46,5.62v9.76A5.63,5.63,0,0,0,8.08,21H13v3H2.5A2.5,2.5,0,0,0,0,26.5v30a2.5,2.5,0,0,0,5,0V29H32V56.5A2.5,2.5,0,0,0,34.5,59h22A2.5,2.5,0,0,0,59,56.5v-30A2.5,2.5,0,0,0,57,24.05Zm-9-9h4v9H48ZM45.26,31.34h1a2.5,2.5,0,0,1,0,5h-1a2.5,2.5,0,0,1,0-5ZM39,15h4v9H39Zm7,35.91H45a2.5,2.5,0,0,1,0-5h1a2.5,2.5,0,0,1,0,5Zm8-7.28H37v-5H54Z"/></g></g></svg>