<svg xmlns="http://www.w3.org/2000/svg" viewBox="0 0 60 60"><title>sentiment dissatisfied</title><g id="Layer_2" data-name="Layer 2"><g id="Layer_1-2" data-name="Layer 1"><g id="sentiment_dissatisfied" data-name="sentiment dissatisfied"><path d="M30,60A30,30,0,1,1,60,30,30,30,0,0,1,30,60ZM30,6A24,24,0,1,0,54,30,24,24,0,0,0,30,6Z"/><path d="M40,45.67a3,3,0,0,1-2.08-.84,11.51,11.51,0,0,0-15.84,0,3,3,0,1,1-4.16-4.31,17.52,17.52,0,0,1,24.16,0A3,3,0,0,1,40,45.67Z"/><path d="M44.47,27.09A3,3,0,0,1,42.14,26a2.81,2.81,0,0,0-3.8-.47,3,3,0,1,1-3.62-4.79A8.83,8.83,0,0,1,46.8,22.2a3,3,0,0,1-2.33,4.89Z"/><path d="M15.53,27.09A3,3,0,0,1,13.2,22.2a8.84,8.84,0,0,1,12.08-1.48,3,3,0,0,1-3.61,4.79,2.83,2.83,0,0,0-3.81.47A3,3,0,0,1,15.53,27.09Z"/></g></g></g></svg>