<svg xmlns="http://www.w3.org/2000/svg" viewBox="0 0 59 57.31"><title>translate</title><g id="Layer_2" data-name="Layer 2"><g id="Layer_1-2" data-name="Layer 1"><g id="translate"><path d="M34.94,5.94H25v-3a2.91,2.91,0,0,0-5.82,0v3H9.32a2.91,2.91,0,1,0,0,5.82h2.74A19.61,19.61,0,0,0,17,22a13.81,13.81,0,0,1-4.19.65,2.91,2.91,0,1,0,0,5.82,19.63,19.63,0,0,0,9.37-2.37,19.56,19.56,0,0,0,9.36,2.37,2.91,2.91,0,1,0,0-5.82A13.74,13.74,0,0,1,27.31,22a19.6,19.6,0,0,0,4.88-10.28h2.75a2.91,2.91,0,1,0,0-5.82ZM22.13,19A13.77,13.77,0,0,1,18,11.76h8.33A13.82,13.82,0,0,1,22.13,19Z"/><path d="M58.79,47.09,51,27.77a2.91,2.91,0,0,0-5.4,0l-7.8,19.32a2.91,2.91,0,1,0,5.4,2.18l1-2.47h8.2l1,2.47a2.92,2.92,0,0,0,2.7,1.82,3,3,0,0,0,1.09-.21A2.91,2.91,0,0,0,58.79,47.09ZM46.54,41l1.75-4.34L50,41Z"/><path d="M30.74,46.24a2.9,2.9,0,0,0-1.36-1.76L22,40.25a2.91,2.91,0,1,0-2.89,5l2.5,1.44A12.86,12.86,0,0,1,5.88,33a2.91,2.91,0,1,0-5.8-.55A18.68,18.68,0,0,0,18.68,52.9a17.84,17.84,0,0,0,2.64-.2l-.14.25a2.91,2.91,0,0,0,2.52,4.36,2.88,2.88,0,0,0,2.53-1.47l4.23-7.39A2.89,2.89,0,0,0,30.74,46.24Z"/></g></g></g></svg>