<svg xmlns="http://www.w3.org/2000/svg" viewBox="0 0 60.14 60.13"><title>whatsapp</title><g id="Layer_2" data-name="Layer 2"><g id="Layer_1-2" data-name="Layer 1"><path id="whatsapp" d="M30.64,0A29.51,29.51,0,0,0,4.08,42.35L.09,57A2.49,2.49,0,0,0,.74,59.4a2.46,2.46,0,0,0,1.76.73,2.91,2.91,0,0,0,.66-.08l14.63-4A29.5,29.5,0,1,0,30.64,0ZM41.52,39.82l-1.06,1.07a4.21,4.21,0,0,1-4.76.86,38.58,38.58,0,0,1-10.62-7.53A38.72,38.72,0,0,1,17.55,23.6a4.21,4.21,0,0,1,.86-4.76l1.06-1.07a2.17,2.17,0,0,1,3.06,0l3.11,3.12a2.16,2.16,0,0,1,0,3.05L24.3,25.28a23.69,23.69,0,0,0,4.15,5.57A23.56,23.56,0,0,0,34,35l1.34-1.34a2.14,2.14,0,0,1,3,0l3.11,3.11A2.14,2.14,0,0,1,41.52,39.82Z"/></g></g></svg>